<svg xmlns="http://www.w3.org/2000/svg" xmlns:xlink="http://www.w3.org/1999/xlink" width="2000" zoomAndPan="magnify" viewBox="0 0 1500 1499.999933" height="2000" preserveAspectRatio="xMidYMid meet" version="1.0"><defs><clipPath id="77192af9fb"><path d="M 66.386719 178 L 1451.636719 178 L 1451.636719 1179.472656 L 66.386719 1179.472656 Z M 66.386719 178 " clip-rule="nonzero"/></clipPath><clipPath id="92b719418c"><path d="M 364.832031 786.558594 L 407.628906 786.558594 L 407.628906 819.792969 L 364.832031 819.792969 Z M 364.832031 786.558594 " clip-rule="nonzero"/></clipPath><clipPath id="dfbccb70e6"><path d="M 364.949219 809.398438 C 372.375 794.625 375.601562 792.75 378.824219 791.023438 C 382.125 789.300781 386.625 787.875 389.699219 787.199219 C 391.875 786.75 395.101562 786.824219 395.25 786.75 C 395.324219 786.75 395.324219 786.75 395.324219 786.75 C 395.476562 786.75 396.074219 786.675781 396.375 786.675781 C 396.75 786.675781 397.125 786.75 397.5 786.824219 C 397.875 786.824219 398.324219 786.824219 398.625 786.824219 C 398.851562 786.898438 398.925781 786.976562 399.148438 787.050781 C 399.300781 787.125 399.523438 787.050781 399.675781 787.125 C 399.976562 787.199219 400.351562 787.5 400.726562 787.648438 C 401.023438 787.800781 401.476562 787.875 401.699219 788.023438 C 401.925781 788.101562 402 788.25 402.148438 788.398438 C 402.300781 788.476562 402.523438 788.476562 402.675781 788.625 C 402.898438 788.773438 403.199219 789.148438 403.425781 789.375 C 403.726562 789.675781 404.101562 789.898438 404.324219 790.125 C 404.476562 790.273438 404.476562 790.425781 404.625 790.574219 C 404.699219 790.726562 404.851562 790.800781 405 790.949219 C 405.148438 791.25 405.300781 791.625 405.523438 792 C 405.675781 792.300781 405.976562 792.601562 406.125 792.898438 C 406.199219 793.125 406.125 793.273438 406.199219 793.425781 C 406.273438 793.648438 406.425781 793.726562 406.5 793.949219 C 406.574219 794.25 406.574219 794.699219 406.648438 795.074219 C 406.648438 795.449219 406.875 795.824219 406.875 796.125 C 406.875 796.351562 406.800781 796.5 406.800781 796.726562 C 406.800781 796.875 406.875 797.023438 406.875 797.25 C 406.875 797.550781 406.574219 798 406.726562 798.300781 C 406.800781 798.675781 407.398438 798.601562 407.550781 799.125 C 408 800.625 406.199219 807.824219 403.949219 810.976562 C 401.773438 813.976562 397.875 816.074219 394.574219 817.5 C 391.5 818.851562 388.425781 819.300781 384.976562 819.523438 C 381.148438 819.675781 376.050781 820.050781 372.675781 818.324219 C 369.375 816.675781 364.949219 809.398438 364.949219 809.398438 " clip-rule="nonzero"/></clipPath><clipPath id="77cf86f218"><path d="M 0.832031 0.558594 L 43.628906 0.558594 L 43.628906 33.792969 L 0.832031 33.792969 Z M 0.832031 0.558594 " clip-rule="nonzero"/></clipPath><clipPath id="30a6e2ab0d"><path d="M 0.949219 23.398438 C 8.375 8.625 11.601562 6.75 14.824219 5.023438 C 18.125 3.300781 22.625 1.875 25.699219 1.199219 C 27.875 0.75 31.101562 0.824219 31.25 0.75 C 31.324219 0.75 31.324219 0.75 31.324219 0.75 C 31.476562 0.75 32.074219 0.675781 32.375 0.675781 C 32.75 0.675781 33.125 0.75 33.5 0.824219 C 33.875 0.824219 34.324219 0.824219 34.625 0.824219 C 34.851562 0.898438 34.925781 0.976562 35.148438 1.050781 C 35.300781 1.125 35.523438 1.050781 35.675781 1.125 C 35.976562 1.199219 36.351562 1.5 36.726562 1.648438 C 37.023438 1.800781 37.476562 1.875 37.699219 2.023438 C 37.925781 2.101562 38 2.25 38.148438 2.398438 C 38.300781 2.476562 38.523438 2.476562 38.675781 2.625 C 38.898438 2.773438 39.199219 3.148438 39.425781 3.375 C 39.726562 3.675781 40.101562 3.898438 40.324219 4.125 C 40.476562 4.273438 40.476562 4.425781 40.625 4.574219 C 40.699219 4.726562 40.851562 4.800781 41 4.949219 C 41.148438 5.25 41.300781 5.625 41.523438 6 C 41.675781 6.300781 41.976562 6.601562 42.125 6.898438 C 42.199219 7.125 42.125 7.273438 42.199219 7.425781 C 42.273438 7.648438 42.425781 7.726562 42.5 7.949219 C 42.574219 8.25 42.574219 8.699219 42.648438 9.074219 C 42.648438 9.449219 42.875 9.824219 42.875 10.125 C 42.875 10.351562 42.800781 10.5 42.800781 10.726562 C 42.800781 10.875 42.875 11.023438 42.875 11.25 C 42.875 11.550781 42.574219 12 42.726562 12.300781 C 42.800781 12.675781 43.398438 12.601562 43.550781 13.125 C 44 14.625 42.199219 21.824219 39.949219 24.976562 C 37.773438 27.976562 33.875 30.074219 30.574219 31.5 C 27.5 32.851562 24.425781 33.300781 20.976562 33.523438 C 17.148438 33.675781 12.050781 34.050781 8.675781 32.324219 C 5.375 30.675781 0.949219 23.398438 0.949219 23.398438 " clip-rule="nonzero"/></clipPath><clipPath id="9ae8f4fa67"><rect x="0" width="44" y="0" height="34"/></clipPath><clipPath id="eb29673007"><path d="M 636.140625 797.617188 L 680.523438 797.617188 L 680.523438 837.382812 L 636.140625 837.382812 Z M 636.140625 797.617188 " clip-rule="nonzero"/></clipPath><clipPath id="29ea359168"><path d="M 636.300781 814.199219 C 641.625 798.976562 645.226562 798.148438 648.300781 797.773438 C 651.675781 797.324219 655.648438 798.226562 659.175781 799.125 C 662.773438 800.101562 666.675781 801.523438 669.75 803.625 C 672.75 805.574219 675.675781 807.898438 677.398438 811.125 C 679.351562 814.648438 681 820.648438 680.175781 824.398438 C 679.425781 827.699219 676.5 830.773438 674.023438 832.800781 C 671.625 834.75 667.050781 836.023438 665.625 836.476562 C 665.101562 836.699219 664.875 836.625 664.5 836.699219 C 664.125 836.851562 663.75 837 663.449219 837.074219 C 663.226562 837.074219 663.074219 837.074219 662.925781 837.074219 C 662.699219 837.074219 662.550781 837.148438 662.324219 837.226562 C 662.023438 837.226562 661.648438 837.074219 661.273438 837.074219 C 660.898438 837.074219 660.449219 837.074219 660.148438 837.074219 C 659.925781 837 659.773438 836.925781 659.625 836.851562 C 659.476562 836.851562 659.25 836.851562 659.101562 836.773438 C 658.800781 836.699219 658.425781 836.476562 658.050781 836.324219 C 657.824219 836.25 657.601562 836.175781 657.300781 836.101562 C 656.925781 835.949219 656.398438 836.023438 655.949219 835.875 C 655.273438 835.648438 653.851562 834.976562 653.851562 834.976562 C 653.851562 834.976562 650.851562 833.699219 649.199219 832.425781 C 646.949219 830.699219 644.101562 827.851562 642.074219 825 C 639.75 821.851562 636.300781 814.199219 636.300781 814.199219 " clip-rule="nonzero"/></clipPath><clipPath id="1c3f85a6ae"><path d="M 0.238281 0.617188 L 44.523438 0.617188 L 44.523438 40.359375 L 0.238281 40.359375 Z M 0.238281 0.617188 " clip-rule="nonzero"/></clipPath><clipPath id="3f4cb7efa2"><path d="M 0.300781 17.199219 C 5.625 1.976562 9.226562 1.148438 12.300781 0.773438 C 15.675781 0.324219 19.648438 1.226562 23.175781 2.125 C 26.773438 3.101562 30.675781 4.523438 33.75 6.625 C 36.75 8.574219 39.675781 10.898438 41.398438 14.125 C 43.351562 17.648438 45 23.648438 44.175781 27.398438 C 43.425781 30.699219 40.5 33.773438 38.023438 35.800781 C 35.625 37.75 31.050781 39.023438 29.625 39.476562 C 29.101562 39.699219 28.875 39.625 28.5 39.699219 C 28.125 39.851562 27.75 40 27.449219 40.074219 C 27.226562 40.074219 27.074219 40.074219 26.925781 40.074219 C 26.699219 40.074219 26.550781 40.148438 26.324219 40.226562 C 26.023438 40.226562 25.648438 40.074219 25.273438 40.074219 C 24.898438 40.074219 24.449219 40.074219 24.148438 40.074219 C 23.925781 40 23.773438 39.925781 23.625 39.851562 C 23.476562 39.851562 23.25 39.851562 23.101562 39.773438 C 22.800781 39.699219 22.425781 39.476562 22.050781 39.324219 C 21.824219 39.25 21.601562 39.175781 21.300781 39.101562 C 20.925781 38.949219 20.398438 39.023438 19.949219 38.875 C 19.273438 38.648438 17.851562 37.976562 17.851562 37.976562 C 17.851562 37.976562 14.851562 36.699219 13.199219 35.425781 C 10.949219 33.699219 8.101562 30.851562 6.074219 28 C 3.75 24.851562 0.300781 17.199219 0.300781 17.199219 " clip-rule="nonzero"/></clipPath><clipPath id="4f8b1e2265"><rect x="0" width="45" y="0" height="41"/></clipPath><clipPath id="ff69881160"><path d="M 472.855469 840.226562 L 562.976562 840.226562 L 562.976562 886.832031 L 472.855469 886.832031 Z M 472.855469 840.226562 " clip-rule="nonzero"/></clipPath><clipPath id="782ba83d9e"><path d="M 517.851562 840.226562 L 562.84375 886.832031 L 472.855469 886.832031 Z M 517.851562 840.226562 " clip-rule="nonzero"/></clipPath><clipPath id="7ec67da041"><path d="M 0.855469 0.226562 L 90.976562 0.226562 L 90.976562 46.832031 L 0.855469 46.832031 Z M 0.855469 0.226562 " clip-rule="nonzero"/></clipPath><clipPath id="c9f95a8e87"><path d="M 45.851562 0.226562 L 90.84375 46.832031 L 0.855469 46.832031 Z M 45.851562 0.226562 " clip-rule="nonzero"/></clipPath><clipPath id="066ece78a1"><rect x="0" width="91" y="0" height="47"/></clipPath><clipPath id="7ecc368f01"><path d="M 566.171875 106.199219 L 588.742188 106.199219 L 588.742188 194.160156 L 566.171875 194.160156 Z M 566.171875 106.199219 " clip-rule="nonzero"/></clipPath><clipPath id="1bbcc4e722"><path d="M 567.148438 184.351562 C 568.425781 143.398438 567.148438 135.824219 567.976562 131.101562 C 568.425781 128.398438 569.175781 126.375 570.375 124.875 C 571.351562 123.601562 572.699219 122.851562 574.050781 122.324219 C 575.398438 121.800781 577.125 121.574219 578.550781 121.800781 C 579.976562 121.949219 581.550781 122.398438 582.75 123.375 C 584.25 124.574219 585.601562 125.925781 586.574219 128.851562 C 589.125 136.949219 587.851562 172.5 587.550781 178.5 C 587.476562 179.851562 587.550781 180 587.25 180.898438 C 586.875 182.175781 586.050781 184.050781 585 185.25 C 583.949219 186.375 582.226562 187.425781 581.023438 187.949219 C 580.125 188.324219 579.601562 188.476562 578.625 188.550781 C 577.273438 188.625 575.101562 188.398438 573.824219 187.949219 C 572.925781 187.726562 572.324219 187.273438 571.648438 186.824219 C 570.976562 186.375 570.375 185.925781 569.773438 185.25 C 569.023438 184.199219 568.125 183.300781 567.523438 180.898438 C 565.351562 172.199219 566.476562 123.898438 566.851562 116.773438 C 566.925781 115.425781 566.925781 115.199219 567.148438 114.300781 C 567.601562 112.949219 568.425781 111.074219 569.550781 109.800781 C 570.601562 108.601562 572.175781 107.550781 573.675781 106.949219 C 575.175781 106.351562 577.273438 106.273438 578.699219 106.351562 C 579.675781 106.425781 580.273438 106.574219 581.101562 106.949219 C 582.375 107.550781 584.175781 108.601562 585.300781 109.800781 C 586.351562 111.074219 587.25 112.648438 587.625 114.300781 C 588 116.023438 588 118.351562 587.398438 120.148438 C 586.648438 122.101562 585.074219 124.351562 583.273438 125.550781 C 581.550781 126.675781 578.625 127.273438 576.824219 127.273438 C 575.550781 127.351562 574.574219 126.976562 573.523438 126.601562 C 572.476562 126.148438 571.5 125.699219 570.601562 124.800781 C 569.324219 123.523438 567.601562 121.125 567.148438 119.101562 C 566.699219 117 567.226562 114.074219 567.824219 112.351562 C 568.273438 111.148438 569.023438 110.398438 569.773438 109.574219 C 570.523438 108.75 571.273438 108 572.476562 107.476562 C 574.125 106.800781 577.273438 106.273438 579.074219 106.425781 C 580.425781 106.5 581.25 106.800781 582.300781 107.476562 C 583.875 108.449219 586.050781 110.773438 586.949219 112.351562 C 587.625 113.476562 587.851562 114.375 587.851562 115.648438 C 587.925781 117.449219 587.25 120.601562 586.425781 122.25 C 585.824219 123.375 585.226562 124.050781 584.25 124.800781 C 582.75 125.851562 579.75 127.050781 577.949219 127.273438 C 576.675781 127.5 575.773438 127.351562 574.574219 126.976562 C 572.925781 126.300781 570.300781 124.875 569.023438 123.148438 C 567.75 121.5 567 118.800781 566.851562 116.773438 C 566.773438 115.050781 567.523438 113.175781 568.050781 111.898438 C 568.5 111 568.875 110.476562 569.550781 109.800781 C 570.523438 108.824219 572.398438 107.550781 573.675781 106.949219 C 574.574219 106.574219 575.324219 106.425781 576.148438 106.351562 C 576.976562 106.273438 577.726562 106.199219 578.699219 106.351562 C 580.050781 106.574219 582.226562 107.398438 583.351562 108.148438 C 584.25 108.675781 584.699219 109.050781 585.300781 109.800781 C 586.125 110.925781 587.023438 111.824219 587.625 114.300781 C 589.800781 123.074219 588 171.523438 587.550781 178.5 C 587.476562 179.851562 587.550781 180 587.25 180.898438 C 586.875 182.175781 586.050781 184.050781 585 185.25 C 583.949219 186.375 582.226562 187.425781 581.023438 187.949219 C 580.125 188.324219 579.601562 188.476562 578.625 188.550781 C 577.273438 188.625 575.101562 188.398438 573.824219 187.949219 C 572.925781 187.726562 572.324219 187.273438 571.648438 186.824219 C 570.976562 186.375 570.375 185.925781 569.773438 185.25 C 569.023438 184.199219 568.125 183.226562 567.523438 180.898438 C 565.726562 173.476562 566.398438 139.726562 567.976562 131.101562 C 568.574219 127.949219 569.175781 126.375 570.375 124.875 C 571.351562 123.601562 572.550781 122.773438 574.050781 122.324219 C 575.925781 121.726562 578.925781 121.726562 580.726562 122.324219 C 582.226562 122.773438 583.5 123.75 584.476562 124.875 C 585.449219 126 586.050781 126.75 586.574219 128.851562 C 588.074219 135.074219 587.023438 156.898438 586.648438 167.398438 C 586.351562 174.675781 586.050781 181.949219 585.226562 185.851562 C 584.851562 187.726562 584.625 188.773438 583.875 189.976562 C 583.125 191.175781 582.074219 192.300781 580.726562 192.976562 C 579.074219 193.800781 576.375 194.398438 574.351562 194.023438 C 572.398438 193.648438 570.148438 192.148438 568.949219 190.574219 C 567.75 189 567.148438 184.351562 567.148438 184.351562 " clip-rule="nonzero"/></clipPath><clipPath id="ded6a8c2d0"><path d="M 0.171875 0.199219 L 22.742188 0.199219 L 22.742188 88.160156 L 0.171875 88.160156 Z M 0.171875 0.199219 " clip-rule="nonzero"/></clipPath><clipPath id="643e872159"><path d="M 1.148438 78.351562 C 2.425781 37.398438 1.148438 29.824219 1.976562 25.101562 C 2.425781 22.398438 3.175781 20.375 4.375 18.875 C 5.351562 17.601562 6.699219 16.851562 8.050781 16.324219 C 9.398438 15.800781 11.125 15.574219 12.550781 15.800781 C 13.976562 15.949219 15.550781 16.398438 16.75 17.375 C 18.25 18.574219 19.601562 19.925781 20.574219 22.851562 C 23.125 30.949219 21.851562 66.5 21.550781 72.5 C 21.476562 73.851562 21.550781 74 21.25 74.898438 C 20.875 76.175781 20.050781 78.050781 19 79.25 C 17.949219 80.375 16.226562 81.425781 15.023438 81.949219 C 14.125 82.324219 13.601562 82.476562 12.625 82.550781 C 11.273438 82.625 9.101562 82.398438 7.824219 81.949219 C 6.925781 81.726562 6.324219 81.273438 5.648438 80.824219 C 4.976562 80.375 4.375 79.925781 3.773438 79.25 C 3.023438 78.199219 2.125 77.300781 1.523438 74.898438 C -0.648438 66.199219 0.476562 17.898438 0.851562 10.773438 C 0.925781 9.425781 0.925781 9.199219 1.148438 8.300781 C 1.601562 6.949219 2.425781 5.074219 3.550781 3.800781 C 4.601562 2.601562 6.175781 1.550781 7.675781 0.949219 C 9.175781 0.351562 11.273438 0.273438 12.699219 0.351562 C 13.675781 0.425781 14.273438 0.574219 15.101562 0.949219 C 16.375 1.550781 18.175781 2.601562 19.300781 3.800781 C 20.351562 5.074219 21.25 6.648438 21.625 8.300781 C 22 10.023438 22 12.351562 21.398438 14.148438 C 20.648438 16.101562 19.074219 18.351562 17.273438 19.550781 C 15.550781 20.675781 12.625 21.273438 10.824219 21.273438 C 9.550781 21.351562 8.574219 20.976562 7.523438 20.601562 C 6.476562 20.148438 5.5 19.699219 4.601562 18.800781 C 3.324219 17.523438 1.601562 15.125 1.148438 13.101562 C 0.699219 11 1.226562 8.074219 1.824219 6.351562 C 2.273438 5.148438 3.023438 4.398438 3.773438 3.574219 C 4.523438 2.75 5.273438 2 6.476562 1.476562 C 8.125 0.800781 11.273438 0.273438 13.074219 0.425781 C 14.425781 0.5 15.25 0.800781 16.300781 1.476562 C 17.875 2.449219 20.050781 4.773438 20.949219 6.351562 C 21.625 7.476562 21.851562 8.375 21.851562 9.648438 C 21.925781 11.449219 21.25 14.601562 20.425781 16.25 C 19.824219 17.375 19.226562 18.050781 18.25 18.800781 C 16.75 19.851562 13.75 21.050781 11.949219 21.273438 C 10.675781 21.5 9.773438 21.351562 8.574219 20.976562 C 6.925781 20.300781 4.300781 18.875 3.023438 17.148438 C 1.75 15.5 1 12.800781 0.851562 10.773438 C 0.773438 9.050781 1.523438 7.175781 2.050781 5.898438 C 2.5 5 2.875 4.476562 3.550781 3.800781 C 4.523438 2.824219 6.398438 1.550781 7.675781 0.949219 C 8.574219 0.574219 9.324219 0.425781 10.148438 0.351562 C 10.976562 0.273438 11.726562 0.199219 12.699219 0.351562 C 14.050781 0.574219 16.226562 1.398438 17.351562 2.148438 C 18.25 2.675781 18.699219 3.050781 19.300781 3.800781 C 20.125 4.925781 21.023438 5.824219 21.625 8.300781 C 23.800781 17.074219 22 65.523438 21.550781 72.5 C 21.476562 73.851562 21.550781 74 21.25 74.898438 C 20.875 76.175781 20.050781 78.050781 19 79.25 C 17.949219 80.375 16.226562 81.425781 15.023438 81.949219 C 14.125 82.324219 13.601562 82.476562 12.625 82.550781 C 11.273438 82.625 9.101562 82.398438 7.824219 81.949219 C 6.925781 81.726562 6.324219 81.273438 5.648438 80.824219 C 4.976562 80.375 4.375 79.925781 3.773438 79.25 C 3.023438 78.199219 2.125 77.226562 1.523438 74.898438 C -0.273438 67.476562 0.398438 33.726562 1.976562 25.101562 C 2.574219 21.949219 3.175781 20.375 4.375 18.875 C 5.351562 17.601562 6.550781 16.773438 8.050781 16.324219 C 9.925781 15.726562 12.925781 15.726562 14.726562 16.324219 C 16.226562 16.773438 17.5 17.75 18.476562 18.875 C 19.449219 20 20.050781 20.75 20.574219 22.851562 C 22.074219 29.074219 21.023438 50.898438 20.648438 61.398438 C 20.351562 68.675781 20.050781 75.949219 19.226562 79.851562 C 18.851562 81.726562 18.625 82.773438 17.875 83.976562 C 17.125 85.175781 16.074219 86.300781 14.726562 86.976562 C 13.074219 87.800781 10.375 88.398438 8.351562 88.023438 C 6.398438 87.648438 4.148438 86.148438 2.949219 84.574219 C 1.75 83 1.148438 78.351562 1.148438 78.351562 " clip-rule="nonzero"/></clipPath><clipPath id="bf3d7607f1"><rect x="0" width="23" y="0" height="89"/></clipPath><clipPath id="22164e5e6e"><path d="M 577.390625 132.195312 L 625.894531 132.195312 L 625.894531 187.054688 L 577.390625 187.054688 Z M 577.390625 132.195312 " clip-rule="nonzero"/></clipPath><clipPath id="1446e0f757"><path d="M 577.425781 175.125 C 578.101562 172.273438 578.324219 171.824219 578.851562 170.925781 C 579.75 169.273438 582.824219 164.699219 583.574219 163.574219 C 583.726562 163.273438 583.800781 163.273438 583.949219 162.976562 C 584.476562 162 585.449219 159 586.726562 156.75 C 588.449219 153.675781 591.449219 149.398438 594.074219 146.550781 C 596.398438 144.074219 599.398438 141.976562 601.425781 140.476562 C 602.851562 139.425781 604.199219 138.523438 605.101562 138 C 605.550781 137.699219 605.851562 137.550781 606.148438 137.398438 C 606.449219 137.25 606.675781 137.175781 607.050781 136.949219 C 607.800781 136.351562 608.699219 134.25 610.273438 133.574219 C 612.898438 132.523438 619.5 131.476562 622.125 133.5 C 624.976562 135.75 626.25 143.773438 625.574219 147.824219 C 625.050781 151.050781 621.226562 155.101562 620.550781 156 C 620.398438 156.148438 620.324219 156.148438 620.175781 156.300781 C 620.101562 156.449219 620.101562 156.601562 620.023438 156.75 C 619.875 157.050781 619.5 157.351562 619.351562 157.648438 C 619.125 157.949219 618.898438 158.398438 618.675781 158.625 C 618.523438 158.773438 618.375 158.851562 618.226562 159 C 618.148438 159.074219 618.074219 159.300781 617.925781 159.375 C 617.625 159.601562 617.25 159.824219 616.949219 160.050781 C 616.648438 160.199219 616.273438 160.574219 616.050781 160.726562 C 615.898438 160.800781 615.898438 160.726562 615.75 160.800781 C 615.226562 161.175781 613.875 162.675781 612.601562 163.949219 C 610.5 166.125 606.601562 169.574219 604.351562 172.726562 C 602.25 175.726562 600.75 180.375 599.550781 182.324219 C 598.949219 183.300781 598.125 184.273438 598.125 184.351562 C 598.125 184.351562 597.449219 184.800781 597.074219 185.023438 C 596.773438 185.25 596.101562 185.773438 596.101562 185.773438 C 596.101562 185.773438 595.351562 186.074219 594.898438 186.226562 C 594.523438 186.375 593.773438 186.675781 593.773438 186.675781 C 593.773438 186.675781 592.949219 186.824219 592.574219 186.898438 C 592.125 186.898438 591.300781 187.050781 591.300781 187.050781 C 591.300781 187.050781 590.476562 186.976562 590.101562 186.898438 C 589.648438 186.898438 588.824219 186.75 588.824219 186.75 C 588.824219 186.75 588.074219 186.523438 587.699219 186.375 C 587.25 186.226562 586.5 185.925781 586.5 185.925781 C 586.5 185.925781 585.75 185.398438 585.449219 185.25 C 585.300781 185.101562 585.148438 185.023438 585 184.949219 C 584.925781 184.949219 584.851562 184.949219 584.773438 184.949219 C 584.398438 184.875 583.273438 184.574219 582.675781 184.199219 C 582 183.898438 581.324219 183.523438 580.800781 183 C 580.199219 182.550781 579.675781 182.023438 579.226562 181.425781 C 578.773438 180.824219 578.398438 180.148438 578.101562 179.476562 C 577.800781 178.800781 577.648438 178.050781 577.5 177.375 C 577.425781 176.625 577.425781 175.125 577.425781 175.125 " clip-rule="nonzero"/></clipPath><clipPath id="0bf1323193"><path d="M 0.390625 0.195312 L 48.894531 0.195312 L 48.894531 55.054688 L 0.390625 55.054688 Z M 0.390625 0.195312 " clip-rule="nonzero"/></clipPath><clipPath id="6690334e7d"><path d="M 0.425781 43.125 C 1.101562 40.273438 1.324219 39.824219 1.851562 38.925781 C 2.75 37.273438 5.824219 32.699219 6.574219 31.574219 C 6.726562 31.273438 6.800781 31.273438 6.949219 30.976562 C 7.476562 30 8.449219 27 9.726562 24.75 C 11.449219 21.675781 14.449219 17.398438 17.074219 14.550781 C 19.398438 12.074219 22.398438 9.976562 24.425781 8.476562 C 25.851562 7.425781 27.199219 6.523438 28.101562 6 C 28.550781 5.699219 28.851562 5.550781 29.148438 5.398438 C 29.449219 5.25 29.675781 5.175781 30.050781 4.949219 C 30.800781 4.351562 31.699219 2.25 33.273438 1.574219 C 35.898438 0.523438 42.5 -0.523438 45.125 1.5 C 47.976562 3.75 49.25 11.773438 48.574219 15.824219 C 48.050781 19.050781 44.226562 23.101562 43.550781 24 C 43.398438 24.148438 43.324219 24.148438 43.175781 24.300781 C 43.101562 24.449219 43.101562 24.601562 43.023438 24.75 C 42.875 25.050781 42.5 25.351562 42.351562 25.648438 C 42.125 25.949219 41.898438 26.398438 41.675781 26.625 C 41.523438 26.773438 41.375 26.851562 41.226562 27 C 41.148438 27.074219 41.074219 27.300781 40.925781 27.375 C 40.625 27.601562 40.25 27.824219 39.949219 28.050781 C 39.648438 28.199219 39.273438 28.574219 39.050781 28.726562 C 38.898438 28.800781 38.898438 28.726562 38.75 28.800781 C 38.226562 29.175781 36.875 30.675781 35.601562 31.949219 C 33.5 34.125 29.601562 37.574219 27.351562 40.726562 C 25.25 43.726562 23.75 48.375 22.550781 50.324219 C 21.949219 51.300781 21.125 52.273438 21.125 52.351562 C 21.125 52.351562 20.449219 52.800781 20.074219 53.023438 C 19.773438 53.25 19.101562 53.773438 19.101562 53.773438 C 19.101562 53.773438 18.351562 54.074219 17.898438 54.226562 C 17.523438 54.375 16.773438 54.675781 16.773438 54.675781 C 16.773438 54.675781 15.949219 54.824219 15.574219 54.898438 C 15.125 54.898438 14.300781 55.050781 14.300781 55.050781 C 14.300781 55.050781 13.476562 54.976562 13.101562 54.898438 C 12.648438 54.898438 11.824219 54.75 11.824219 54.75 C 11.824219 54.75 11.074219 54.523438 10.699219 54.375 C 10.25 54.226562 9.5 53.925781 9.5 53.925781 C 9.5 53.925781 8.75 53.398438 8.449219 53.25 C 8.300781 53.101562 8.148438 53.023438 8 52.949219 C 7.925781 52.949219 7.851562 52.949219 7.773438 52.949219 C 7.398438 52.875 6.273438 52.574219 5.675781 52.199219 C 5 51.898438 4.324219 51.523438 3.800781 51 C 3.199219 50.550781 2.675781 50.023438 2.226562 49.425781 C 1.773438 48.824219 1.398438 48.148438 1.101562 47.476562 C 0.800781 46.800781 0.648438 46.050781 0.5 45.375 C 0.425781 44.625 0.425781 43.125 0.425781 43.125 " clip-rule="nonzero"/></clipPath><clipPath id="79ccb3fe4d"><rect x="0" width="49" y="0" height="56"/></clipPath><clipPath id="d9a4a828f2"><path d="M 534.542969 142.070312 L 592.519531 142.070312 L 592.519531 194.382812 L 534.542969 194.382812 Z M 534.542969 142.070312 " clip-rule="nonzero"/></clipPath><clipPath id="b4d2009ce8"><path d="M 567.300781 190.199219 C 559.875 180.976562 551.25 177.675781 547.199219 174.226562 C 544.199219 171.675781 542.398438 169.125 540.300781 166.351562 C 538.199219 163.648438 534.824219 161.175781 534.601562 157.949219 C 534.300781 154.125 537.523438 147.148438 540.824219 144.75 C 543.824219 142.648438 549.226562 142.875 552.898438 143.550781 C 556.351562 144.148438 559.125 147.148438 562.199219 148.273438 C 565.199219 149.398438 567.824219 148.726562 571.125 150.449219 C 576.675781 153.300781 588.375 164.175781 590.851562 167.324219 C 591.601562 168.300781 591.675781 168.601562 591.898438 169.5 C 592.273438 170.851562 592.574219 172.875 592.351562 174.449219 C 592.125 176.023438 591.375 177.675781 590.476562 178.949219 C 589.5 180.226562 588.074219 181.351562 586.648438 182.101562 C 585.226562 182.773438 583.199219 183.074219 581.851562 183.074219 C 580.949219 183.074219 580.199219 182.925781 579.449219 182.699219 C 578.625 182.476562 577.949219 182.25 577.125 181.726562 C 576 180.976562 573.375 178.726562 573.601562 178.351562 C 573.976562 177.75 585.75 181.800781 585.675781 182.476562 C 585.601562 183.148438 579.148438 183.300781 575.773438 182.851562 C 572.175781 182.324219 567.898438 181.199219 564.75 179.324219 C 561.601562 177.523438 559.199219 174.523438 556.800781 171.824219 C 554.324219 168.976562 552.074219 163.949219 549.898438 162.675781 C 548.699219 162 547.574219 162.75 546.375 162.226562 C 544.800781 161.476562 542.476562 159.601562 541.425781 157.726562 C 540.375 155.851562 539.925781 153.226562 540.226562 151.125 C 540.523438 149.023438 542.101562 146.476562 543.226562 145.125 C 544.125 144.148438 544.875 143.625 546.074219 143.175781 C 547.726562 142.5 550.875 142.050781 552.675781 142.273438 C 553.949219 142.425781 554.851562 142.726562 555.898438 143.476562 C 557.398438 144.523438 559.5 146.550781 560.324219 148.5 C 561.148438 150.449219 561.148438 153.449219 560.851562 155.25 C 560.625 156.523438 560.25 157.351562 559.425781 158.324219 C 558.375 159.75 555.824219 161.773438 554.175781 162.523438 C 553.050781 163.050781 552.148438 163.199219 550.875 163.125 C 549 162.976562 546.148438 162.375 544.425781 161.101562 C 542.699219 159.824219 541.199219 157.648438 540.523438 155.625 C 539.925781 153.601562 540.074219 150.898438 540.824219 148.875 C 541.574219 146.925781 543.226562 144.824219 545.023438 143.699219 C 546.824219 142.574219 549.75 142.125 551.550781 142.125 C 552.824219 142.125 553.574219 142.425781 554.851562 142.949219 C 557.175781 144 560.773438 145.949219 563.925781 148.574219 C 568.199219 152.175781 572.25 160.800781 577.199219 163.875 C 581.398438 166.425781 588.601562 165.226562 590.851562 167.324219 C 592.199219 168.523438 592.273438 170.398438 592.425781 171.976562 C 592.574219 173.550781 592.125 175.5 591.675781 176.773438 C 591.375 177.675781 590.925781 178.273438 590.476562 178.949219 C 589.949219 179.625 589.5 180.148438 588.75 180.75 C 587.699219 181.5 585.898438 182.550781 584.324219 182.851562 C 582.75 183.226562 581.625 183.449219 579.449219 182.699219 C 573.300781 180.601562 548.625 165.824219 548.101562 160.050781 C 547.800781 157.125 552.824219 152.550781 554.925781 152.699219 C 556.949219 152.925781 557.851562 159.074219 560.398438 161.101562 C 562.949219 163.199219 567.449219 162.898438 570.375 164.925781 C 573.601562 167.101562 576.375 170.925781 578.699219 174 C 580.726562 176.625 582.898438 179.324219 583.648438 181.949219 C 584.25 184.199219 584.324219 186.601562 583.574219 188.550781 C 582.824219 190.425781 580.949219 192.449219 579.148438 193.351562 C 577.273438 194.25 574.574219 194.550781 572.625 194.023438 C 570.675781 193.5 567.300781 190.199219 567.300781 190.199219 " clip-rule="nonzero"/></clipPath><clipPath id="93ac3b0e73"><path d="M 0.542969 0.0703125 L 58.519531 0.0703125 L 58.519531 52.382812 L 0.542969 52.382812 Z M 0.542969 0.0703125 " clip-rule="nonzero"/></clipPath><clipPath id="89a4697873"><path d="M 33.300781 48.199219 C 25.875 38.976562 17.25 35.675781 13.199219 32.226562 C 10.199219 29.675781 8.398438 27.125 6.300781 24.351562 C 4.199219 21.648438 0.824219 19.175781 0.601562 15.949219 C 0.300781 12.125 3.523438 5.148438 6.824219 2.75 C 9.824219 0.648438 15.226562 0.875 18.898438 1.550781 C 22.351562 2.148438 25.125 5.148438 28.199219 6.273438 C 31.199219 7.398438 33.824219 6.726562 37.125 8.449219 C 42.675781 11.300781 54.375 22.175781 56.851562 25.324219 C 57.601562 26.300781 57.675781 26.601562 57.898438 27.5 C 58.273438 28.851562 58.574219 30.875 58.351562 32.449219 C 58.125 34.023438 57.375 35.675781 56.476562 36.949219 C 55.5 38.226562 54.074219 39.351562 52.648438 40.101562 C 51.226562 40.773438 49.199219 41.074219 47.851562 41.074219 C 46.949219 41.074219 46.199219 40.925781 45.449219 40.699219 C 44.625 40.476562 43.949219 40.25 43.125 39.726562 C 42 38.976562 39.375 36.726562 39.601562 36.351562 C 39.976562 35.75 51.75 39.800781 51.675781 40.476562 C 51.601562 41.148438 45.148438 41.300781 41.773438 40.851562 C 38.175781 40.324219 33.898438 39.199219 30.75 37.324219 C 27.601562 35.523438 25.199219 32.523438 22.800781 29.824219 C 20.324219 26.976562 18.074219 21.949219 15.898438 20.675781 C 14.699219 20 13.574219 20.75 12.375 20.226562 C 10.800781 19.476562 8.476562 17.601562 7.425781 15.726562 C 6.375 13.851562 5.925781 11.226562 6.226562 9.125 C 6.523438 7.023438 8.101562 4.476562 9.226562 3.125 C 10.125 2.148438 10.875 1.625 12.074219 1.175781 C 13.726562 0.5 16.875 0.0507812 18.675781 0.273438 C 19.949219 0.425781 20.851562 0.726562 21.898438 1.476562 C 23.398438 2.523438 25.5 4.550781 26.324219 6.5 C 27.148438 8.449219 27.148438 11.449219 26.851562 13.25 C 26.625 14.523438 26.25 15.351562 25.425781 16.324219 C 24.375 17.75 21.824219 19.773438 20.175781 20.523438 C 19.050781 21.050781 18.148438 21.199219 16.875 21.125 C 15 20.976562 12.148438 20.375 10.425781 19.101562 C 8.699219 17.824219 7.199219 15.648438 6.523438 13.625 C 5.925781 11.601562 6.074219 8.898438 6.824219 6.875 C 7.574219 4.925781 9.226562 2.824219 11.023438 1.699219 C 12.824219 0.574219 15.75 0.125 17.550781 0.125 C 18.824219 0.125 19.574219 0.425781 20.851562 0.949219 C 23.175781 2 26.773438 3.949219 29.925781 6.574219 C 34.199219 10.175781 38.25 18.800781 43.199219 21.875 C 47.398438 24.425781 54.601562 23.226562 56.851562 25.324219 C 58.199219 26.523438 58.273438 28.398438 58.425781 29.976562 C 58.574219 31.550781 58.125 33.5 57.675781 34.773438 C 57.375 35.675781 56.925781 36.273438 56.476562 36.949219 C 55.949219 37.625 55.5 38.148438 54.75 38.75 C 53.699219 39.5 51.898438 40.550781 50.324219 40.851562 C 48.75 41.226562 47.625 41.449219 45.449219 40.699219 C 39.300781 38.601562 14.625 23.824219 14.101562 18.050781 C 13.800781 15.125 18.824219 10.550781 20.925781 10.699219 C 22.949219 10.925781 23.851562 17.074219 26.398438 19.101562 C 28.949219 21.199219 33.449219 20.898438 36.375 22.925781 C 39.601562 25.101562 42.375 28.925781 44.699219 32 C 46.726562 34.625 48.898438 37.324219 49.648438 39.949219 C 50.25 42.199219 50.324219 44.601562 49.574219 46.550781 C 48.824219 48.425781 46.949219 50.449219 45.148438 51.351562 C 43.273438 52.25 40.574219 52.550781 38.625 52.023438 C 36.675781 51.5 33.300781 48.199219 33.300781 48.199219 " clip-rule="nonzero"/></clipPath><clipPath id="7ca3cb4898"><rect x="0" width="59" y="0" height="53"/></clipPath></defs><path fill="#545454" d="M 756.566406 1099.851562 C 738.976562 1092.394531 729.882812 1100.515625 729.503906 1100.859375 L 728.789062 1101.523438 L 686.074219 1192.789062 C 659.734375 1185.273438 631.304688 1184.363281 613.136719 1190.53125 C 604.046875 1193.613281 597.289062 1198.550781 594.609375 1204.066406 C 593.183594 1207.003906 592.925781 1210.003906 593.886719 1212.71875 C 595.59375 1217.582031 601.304688 1220.445312 611.847656 1227.101562 C 620.382812 1232.507812 634.625 1236.28125 645.960938 1237.535156 C 643.910156 1239.144531 641.859375 1240.703125 639.84375 1242.238281 C 627.597656 1251.5625 613.714844 1259.855469 612.816406 1271.613281 C 612.484375 1275.800781 613.285156 1282.019531 618.921875 1287.78125 C 619.132812 1287.988281 619.351562 1288.210938 619.523438 1288.382812 C 639.882812 1307.792969 668.679688 1291.539062 689.722656 1279.671875 C 690.914062 1278.996094 692.390625 1278.199219 693.972656 1277.339844 C 697.792969 1275.273438 702.03125 1272.964844 705.289062 1270.886719 C 727.351562 1295.789062 744.035156 1307.460938 756.25 1306.539062 C 757.550781 1306.441406 758.605469 1306.222656 759.367188 1306.0625 C 766.222656 1304.648438 771.382812 1299.855469 773.507812 1292.929688 C 778.507812 1276.613281 765.300781 1248.664062 740.65625 1223.355469 C 737.871094 1220.492188 734.796875 1217.765625 731.308594 1215.039062 L 775.230469 1120.367188 L 775.339844 1120.085938 C 779.246094 1109.445312 762.183594 1102.210938 756.578125 1099.839844 Z M 756.566406 1099.851562 " fill-opacity="1" fill-rule="nonzero"/><g clip-path="url(#77192af9fb)"><path fill="#ffcc00" d="M 821.925781 1179.140625 C 807.933594 1179.140625 793.953125 1179.140625 779.960938 1179.140625 C 746.507812 1170.816406 711.667969 1166.011719 679.9375 1153.375 C 632.089844 1134.320312 594.519531 1100.542969 568.25 1053.972656 C 510.414062 1078.148438 451.957031 1086.625 391.179688 1075.457031 C 289.246094 1056.710938 214.039062 990.824219 194.882812 901.355469 C 185.480469 857.460938 193.453125 815.074219 212.734375 775.128906 C 112.789062 719.167969 97.183594 700.039062 66.628906 596.941406 C 66.628906 582.949219 66.628906 568.964844 66.628906 554.980469 C 67.832031 553.824219 69.878906 552.824219 70.113281 551.503906 C 87.285156 454.144531 150.96875 400.570312 240.96875 374.992188 C 274.742188 365.394531 310.96875 364.402344 345.949219 359.503906 C 371.511719 261.367188 438.691406 206.285156 535.742188 185.445312 C 632.398438 164.691406 718.742188 187.816406 792.453125 254.628906 C 852.296875 210.949219 917.992188 191.285156 990.183594 197.617188 C 1083.789062 205.835938 1160.140625 244.484375 1201.765625 332.78125 C 1215.058594 360.992188 1217.972656 394.09375 1225.941406 426.167969 C 1322.15625 441.769531 1378.839844 473.207031 1420.113281 541.671875 C 1434.894531 566.203125 1441.175781 595.851562 1451.328125 623.160156 C 1451.328125 635.398438 1451.328125 647.636719 1451.328125 659.875 C 1441.339844 715.324219 1416.167969 762.484375 1372.949219 798.0625 C 1447.394531 921.960938 1382.738281 1046.363281 1274.359375 1095.378906 C 1190.875 1133.140625 1107.234375 1132.117188 1024.765625 1092.28125 C 1010.496094 1085.371094 1002.609375 1087.640625 991.128906 1097.730469 C 970.460938 1115.894531 949.261719 1135.53125 924.710938 1146.699219 C 892.25 1161.464844 856.34375 1168.679688 821.925781 1179.140625 Z M 821.925781 1179.140625 " fill-opacity="1" fill-rule="nonzero"/></g><g clip-path="url(#92b719418c)"><g clip-path="url(#dfbccb70e6)"><g transform="matrix(1, 0, 0, 1, 364, 786)"><g clip-path="url(#9ae8f4fa67)"><g clip-path="url(#77cf86f218)"><g clip-path="url(#30a6e2ab0d)"><rect x="-694" width="2160" fill="#545454" height="2159.999904" y="-1115.999985" fill-opacity="1"/></g></g></g></g></g></g><g clip-path="url(#eb29673007)"><g clip-path="url(#29ea359168)"><g transform="matrix(1, 0, 0, 1, 636, 797)"><g clip-path="url(#4f8b1e2265)"><g clip-path="url(#1c3f85a6ae)"><g clip-path="url(#3f4cb7efa2)"><rect x="-966" width="2160" fill="#545454" height="2159.999904" y="-1126.999985" fill-opacity="1"/></g></g></g></g></g></g><g clip-path="url(#ff69881160)"><g clip-path="url(#782ba83d9e)"><g transform="matrix(1, 0, 0, 1, 472, 840)"><g clip-path="url(#066ece78a1)"><g clip-path="url(#7ec67da041)"><g clip-path="url(#c9f95a8e87)"><path fill="#545454" d="M 0.855469 0.226562 L 90.792969 0.226562 L 90.792969 46.832031 L 0.855469 46.832031 Z M 0.855469 0.226562 " fill-opacity="1" fill-rule="nonzero"/></g></g></g></g></g></g><path fill="#545454" d="M 1270.527344 1169.667969 C 1267.765625 1164.199219 1260.933594 1159.371094 1251.792969 1156.425781 C 1233.523438 1150.527344 1205.121094 1151.878906 1178.890625 1159.804688 L 1134.789062 1069.199219 L 1134.0625 1068.546875 C 1133.105469 1067.6875 1124.160156 1060.367188 1106.984375 1067.957031 C 1101.421875 1070.414062 1084.46875 1077.910156 1088.546875 1088.488281 L 1134.039062 1182.753906 C 1130.585938 1185.527344 1127.550781 1188.316406 1124.8125 1191.214844 C 1100.546875 1216.894531 1087.785156 1245.050781 1093.03125 1261.28125 C 1095.265625 1268.171875 1100.488281 1272.878906 1107.367188 1274.191406 C 1108.128906 1274.339844 1109.183594 1274.535156 1110.5 1274.621094 C 1122.722656 1275.347656 1139.222656 1263.417969 1160.90625 1238.183594 C 1164.175781 1240.210938 1168.449219 1242.445312 1172.320312 1244.460938 C 1173.917969 1245.296875 1175.390625 1246.070312 1176.605469 1246.734375 C 1197.8125 1258.269531 1226.867188 1274.082031 1246.867188 1254.398438 C 1247.089844 1254.179688 1247.308594 1253.957031 1247.519531 1253.738281 C 1253.058594 1247.902344 1253.746094 1241.683594 1253.355469 1237.507812 C 1252.273438 1225.761719 1238.265625 1217.679688 1225.847656 1208.527344 C 1223.820312 1207.027344 1221.742188 1205.503906 1219.679688 1203.933594 C 1231.007812 1202.507812 1248.464844 1198.710938 1256.929688 1193.171875 C 1267.371094 1186.351562 1269.742188 1183.207031 1271.375 1178.316406 C 1272.285156 1175.589844 1271.992188 1172.605469 1270.515625 1169.679688 Z M 1270.527344 1169.667969 " fill-opacity="1" fill-rule="nonzero"/><g clip-path="url(#7ecc368f01)"><g clip-path="url(#1bbcc4e722)"><g transform="matrix(1, 0, 0, 1, 566, 106)"><g clip-path="url(#bf3d7607f1)"><g clip-path="url(#ded6a8c2d0)"><g clip-path="url(#643e872159)"><rect x="-896" width="2160" fill="#ffcc00" height="2159.999904" y="-435.999985" fill-opacity="1"/></g></g></g></g></g></g><g clip-path="url(#22164e5e6e)"><g clip-path="url(#1446e0f757)"><g transform="matrix(1, 0, 0, 1, 577, 132)"><g clip-path="url(#79ccb3fe4d)"><g clip-path="url(#0bf1323193)"><g clip-path="url(#6690334e7d)"><rect x="-907" width="2160" fill="#ffcc00" height="2159.999904" y="-461.999985" fill-opacity="1"/></g></g></g></g></g></g><g clip-path="url(#d9a4a828f2)"><g clip-path="url(#b4d2009ce8)"><g transform="matrix(1, 0, 0, 1, 534, 142)"><g clip-path="url(#7ca3cb4898)"><g clip-path="url(#93ac3b0e73)"><g clip-path="url(#89a4697873)"><rect x="-864" width="2160" fill="#ffcc00" height="2159.999904" y="-471.999985" fill-opacity="1"/></g></g></g></g></g></g></svg>